<?xml version="1.0" encoding="utf-8"?>
<!DOCTYPE svg PUBLIC "-//W3C//DTD SVG 20010904//EN" "http://www.w3.org/TR/2001/REC-SVG-20010904/DTD/svg10.dtd">
<svg version="1.0" xmlns="http://www.w3.org/2000/svg" width="512px" height="512px" viewBox="0 0 512 512" preserveAspectRatio="xMidYMid meet">
 <g fill="#334d5c">
  <path d="M235.5 510.9 c-82.2 -6.6 -157.4 -53.7 -199.6 -125.1 -47.1 -79.5 -47.4 -178.6 -0.8 -258.4 21.8 -37.3 55 -70.5 92.3 -92.3 79.4 -46.4 177.8 -46.4 257.2 0 36.9 21.6 69.8 54.3 91.5 91.1 47.4 79.9 47.4 179.7 0 259.6 -21.5 36.4 -53.9 68.8 -90.3 90.3 -45.1 26.8 -98.1 39 -150.3 34.8z m109.6 -89.5 c6.4 -3 12.5 -8.8 15.7 -14.8 2.6 -4.9 2.7 -5.7 3 -24.8 l0.3 -19.6 4.1 -1.7 c17.4 -6.9 36.4 -26.6 53.8 -55.5 24.6 -40.9 38.4 -78.3 34.9 -94.9 -2.4 -11.7 -8.6 -19.6 -18.5 -23.6 -4.5 -1.7 -8 -1.9 -39.6 -2.3 l-34.8 -0.3 0 -9.9 c0 -9.3 0.2 -10.1 2.6 -12.7 5.5 -5.8 6.7 -11.9 3.5 -18.1 -3.6 -7 -11.1 -12.2 -17.6 -12.2 -2.4 0 -5.1 -1.1 -8.5 -3.4 -4.7 -3.3 -8 -4.6 -14.2 -6 -1.7 -0.4 -3.4 -1.8 -4.2 -3.5 -2 -3.7 -7 -7.9 -12.5 -10.3 -3.5 -1.6 -5.5 -1.9 -11.2 -1.3 l-7 0.7 -5.3 -5 c-8.6 -8.2 -18.3 -12.3 -28.9 -12.3 -6.7 0 -6.7 0 -11.6 -4.9 -6.3 -6.3 -13.9 -9 -20.3 -7.1 -9.1 2.8 -16.3 10.2 -18.9 19.6 -0.7 2.3 -1.6 3.5 -2.8 3.5 -5.5 0 -12.6 3.4 -17.7 8.5 -2.9 2.9 -6.8 6.2 -8.7 7.4 -4.6 2.8 -12.3 11.2 -14.4 15.5 -1.4 3 -2.2 3.6 -4.7 3.6 -7 0 -14.8 6.2 -17.4 13.9 -2.1 6.1 2.3 14.9 9.3 18.7 l3.5 1.9 0 112 c0 123.2 -0.2 119 6 128.1 1.7 2.4 5 5.7 7.3 7.3 9 6.2 6.6 6 92.2 5.8 77.4 -0.2 78 -0.2 82.6 -2.3z"/>
  <path d="M364 275.1 l0 -60.1 25.3 0 c22.4 0 25.7 0.3 29.3 1.9 8.4 3.8 10.8 9.9 10.2 25 -0.6 13.2 -4.1 24.2 -13.4 42.1 -16.3 31.2 -32.9 49.2 -46.9 50.8 l-4.5 0.5 0 -60.2z"/>
 </g>
 <g fill="#f9f8f5">
  <path d="M176.6 425.4 c-6.7 -2.1 -12.9 -6.5 -16.6 -11.8 -6.2 -9.1 -6 -4.9 -6 -128.1 l0 -112 -3.5 -1.9 c-8.3 -4.5 -12.5 -15.5 -9.3 -24.7 2.6 -7.7 10.4 -13.9 17.4 -13.9 2.5 0 3.3 -0.6 4.7 -3.6 2.1 -4.3 9.8 -12.7 14.4 -15.5 1.9 -1.2 5.8 -4.5 8.7 -7.4 5.1 -5.1 12.2 -8.5 17.7 -8.5 1.2 0 2.1 -1.2 2.8 -3.5 5.7 -20.6 30.3 -27.4 45.3 -12.4 3.3 3.3 5.3 4.6 6.7 4.2 3.5 -0.9 15.2 1.5 21.7 4.6 3.5 1.6 8.6 5.1 11.5 7.8 l5.1 4.7 7.3 -0.3 c5.6 -0.2 8.4 0.2 11.7 1.7 5.4 2.4 10.4 6.6 12.4 10.3 0.8 1.7 2.5 3.1 4.2 3.5 6.2 1.4 9.5 2.7 14.2 6 3.4 2.3 6.1 3.4 8.5 3.4 10.2 0 19.5 10.3 19.5 21.5 0 6.4 -1.6 10.8 -5.4 14.8 -2.3 2.5 -2.6 3.6 -2.6 9.7 l0 6.9 34.8 0.3 c31.6 0.4 35.1 0.6 39.6 2.3 21.7 8.8 25.1 34.5 9.6 73.7 -7.8 19.5 -25.6 52 -38.4 69.8 -11.6 16.2 -28.9 31.5 -41.4 36.5 l-4.1 1.7 -0.3 19.6 c-0.3 19.1 -0.4 19.9 -3 24.8 -3.2 6 -9.3 11.8 -15.7 14.8 -4.6 2.1 -5.2 2.1 -85.6 2.3 -70.3 0.2 -81.7 0 -85.9 -1.3z m153.9 -23.3 c5.9 -2.7 10.3 -6.8 13 -12.2 l2.5 -4.8 0 -101.1 c0 -55.5 -0.1 -101 -0.2 -101 -0.2 0 -2.5 0.7 -5.2 1.5 -2.7 0.8 -6.6 1.5 -8.8 1.5 l-3.8 0 0 43 c0 48.5 0 48.9 -6.5 51 -4.9 1.6 -11.1 0.7 -14.1 -2.1 l-2.4 -2.2 0 -40.8 0 -40.8 -4.7 2.2 c-3.8 1.7 -7.2 2.2 -16.4 2.5 l-11.6 0.4 -2.2 5.2 c-1.2 2.9 -3.7 6.8 -5.6 8.6 l-3.5 3.4 0 30.7 c0 17.1 -0.4 31.9 -1 33.3 -1.3 3.4 -7.7 5.4 -13 3.9 l-3.8 -1 -0.4 14.6 c-0.3 13.1 -0.5 15 -2.6 18.3 -3 4.8 -9.1 7.2 -16.7 6.6 -5.9 -0.5 -9.4 -2.4 -12.9 -7.2 -2.1 -2.7 -2.1 -4 -2.4 -58.8 l-0.3 -56.2 -2.6 -2.5 c-1.4 -1.4 -3 -3.8 -3.5 -5.3 -0.9 -2.6 -1.4 -2.8 -7.1 -2.8 -5.3 -0.1 -11.1 -1.5 -17.9 -4.5 -1.7 -0.7 -1.8 4.4 -1.8 97.8 0 89.2 0.2 99 1.7 103.6 1.9 6.1 7 11.8 13.4 14.9 l4.4 2.2 66 0 c61.7 0 66.3 -0.2 70 -1.9z m48.2 -76.3 c10.8 -7.3 21.8 -22 33.7 -44.8 16.9 -32.5 18 -54.4 3.2 -61.1 -3.6 -1.6 -6.9 -1.9 -26.3 -1.9 l-22.3 0 0 57 0 57 3.5 -1.4 c1.9 -0.8 5.6 -3 8.2 -4.8z"/>
 </g>
 <g fill="#efc94d">
  <path d="M187.1 404.8 c-6.4 -3.1 -11.5 -8.8 -13.4 -14.9 -1.5 -4.7 -1.7 -14.7 -1.7 -109.2 l0 -104 2.3 2.1 c4.4 4.1 13.7 7.5 21.9 8 7.2 0.4 7.7 0.6 8.6 3.1 0.5 1.4 2.1 3.8 3.5 5.1 l2.7 2.5 0 53.5 c0 29.4 0.5 55.2 0.9 57.4 1.2 4.8 5.4 9.3 10.3 10.8 5.4 1.6 11.9 -1 15 -6 2.3 -3.7 2.3 -3.7 2.6 -49.5 0.2 -39.3 0.5 -45.7 1.7 -45.7 1.3 0 1.5 4.2 1.5 28.8 0 30.9 0.2 32.2 5.4 34.1 3 1.2 7.6 -0.7 8.7 -3.6 0.5 -1.3 0.9 -16.3 0.9 -33.2 l0 -30.7 3.1 -3 c3.2 -3 7.9 -11.6 7.9 -14.6 0 -1.4 0.5 -1.5 3.7 -0.6 2.1 0.6 7.4 0.8 11.8 0.6 8.1 -0.5 13.3 -2.2 20.3 -6.8 l3.2 -2.2 0 11 c0 8.5 -0.3 11.2 -1.5 12.2 -0.8 0.7 -1.5 1.9 -1.5 2.7 0 0.7 0.7 1.6 1.5 1.9 1.3 0.5 1.5 4 1.5 23.1 l0 22.5 -4 -0.3 c-4.5 -0.4 -7.2 1.3 -5.2 3.3 0.7 0.7 3 1.1 5.2 0.9 l4 -0.3 0 4.4 c0 6.8 5.1 10.7 11.1 8.6 5.8 -2 5.9 -3.1 5.9 -50.6 l0 -42.9 6.2 -0.6 c4 -0.3 8.2 -1.6 12 -3.5 l5.8 -3.1 0 106 0 106 -2.5 4.8 c-2.7 5.4 -7.1 9.5 -13 12.2 -3.7 1.7 -8.4 1.9 -73 1.9 l-69 0 -4.4 -2.2z m100.9 -63.3 c-1 -1.2 -1.6 -1.3 -2.6 -0.4 -0.8 0.6 -1.4 1.7 -1.4 2.4 0 1.9 2.3 2.5 3.9 0.9 1.2 -1.1 1.2 -1.6 0.1 -2.9z m-24.1 -14.1 c-1.4 -1.4 -1.7 -1.4 -2.9 0 -1 1.3 -1 1.9 0 3.2 1.2 1.4 1.5 1.4 2.9 0 1.4 -1.5 1.4 -1.7 0 -3.2z m-80.9 -60.9 c0 -27.7 -0.3 -42.5 -1 -42.5 -0.7 0 -1 14.8 -1 42.5 0 27.7 0.3 42.5 1 42.5 0.7 0 1 -14.8 1 -42.5z m74.9 35.9 c-1.4 -1.4 -1.7 -1.4 -2.9 0 -1 1.3 -1 1.9 0 3.2 1.2 1.4 1.5 1.4 2.9 0 1.4 -1.5 1.4 -1.7 0 -3.2z m26.1 -10.9 c1.3 -1.6 0.6 -3.5 -1.4 -3.5 -2.2 0 -3.7 2.5 -2.4 3.8 1.6 1.6 2.3 1.5 3.8 -0.3z m-7 -25 c-1 -1.2 -1.6 -1.3 -2.6 -0.4 -0.8 0.6 -1.4 1.7 -1.4 2.4 0 1.9 2.3 2.5 3.9 0.9 1.2 -1.1 1.2 -1.6 0.1 -2.9z m11.9 -22.8 c1.2 -1.5 -0.3 -3.7 -2.5 -3.7 -1.7 0 -2.4 2.6 -1.1 3.9 1.4 1.4 2.2 1.4 3.6 -0.2z m-16 -32.1 c0.9 -1 0.8 -1.6 -0.4 -2.6 -2.1 -1.7 -5.1 0.6 -3.4 2.6 0.6 0.8 1.5 1.4 1.9 1.4 0.4 0 1.3 -0.6 1.9 -1.4z"/>
 </g>
 <g fill="#f1d47d">
  <path d="M283.5 348.8 c-2.7 -1.5 -3.5 -2.8 -3.5 -5.9 0 -5.5 8.3 -8.2 11.4 -3.7 2.2 3.2 2 5.5 -0.9 8.3 -2.7 2.8 -4 3 -7 1.3z"/>
  <path d="M261 335.2 c-4.9 -1.6 -6.4 -6.3 -3.2 -10.2 3.6 -4.4 11.2 -1.7 11.2 4 0 3.8 -4.5 7.3 -8 6.2z"/>
  <path d="M179.7 313 c-1.6 -1.8 -1.7 -5.9 -1.7 -46.6 0 -46.6 0.1 -47.4 4.2 -47.4 3.7 0 3.8 1.3 3.8 48.6 0 41.2 -0.2 46.3 -1.6 46.8 -2.4 0.9 -2.8 0.8 -4.7 -1.4z"/>
  <path d="M251.6 307.8 c-0.9 -1.2 -1.6 -3.2 -1.6 -4.4 0 -2.3 4.2 -6.4 6.5 -6.4 2.6 0 6.5 4.1 6.5 6.9 0 5.7 -8.2 8.5 -11.4 3.9z"/>
  <path d="M278.2 295.4 c-1.5 -1 -2.2 -2.5 -2.2 -4.8 0 -8 10.7 -9.2 12.5 -1.4 0.5 2.1 0.1 3.3 -1.9 5.2 -2.9 3 -5.2 3.3 -8.4 1z"/>
  <path d="M240.1 289 c0.1 -4.2 0.1 -4.3 1 -1.8 0.7 1.8 0.7 3.3 0 4.5 -0.8 1.4 -1 0.9 -1 -2.7z"/>
  <path d="M272.5 273.8 c-2.7 -1.5 -3.5 -2.8 -3.5 -5.9 0 -5.5 8.3 -8.2 11.4 -3.7 2.1 2.9 2 5.1 -0.1 7.6 -2.3 2.6 -5.3 3.4 -7.8 2z"/>
  <path d="M296.7 267 c-3.2 -2.5 -3.6 -6.9 -0.9 -9.3 2 -1.8 4.1 -2.1 9.1 -1.1 3 0.6 3.1 0.8 3.1 6 0 4.9 -0.2 5.4 -2.2 5.3 -1.3 0 -3.2 0.2 -4.3 0.6 -1.4 0.4 -3 -0.1 -4.8 -1.5z"/>
  <path d="M282.1 246.4 c-2.4 -3.1 -2.5 -3.5 -0.9 -6.9 2.6 -5.8 11.1 -3.8 11.6 2.7 0.2 2.8 -0.2 4 -2 5.2 -3.3 2.3 -6.4 2 -8.7 -1z"/>
  <path d="M305.5 218.8 c-5 -2.7 -6 -8 -2.2 -11.6 4 -3.7 4.7 -2.9 4.7 5.3 0 4.1 -0.1 7.5 -0.2 7.5 -0.2 0 -1.2 -0.6 -2.3 -1.2z"/>
  <path d="M266.7 215.2 c-3.8 -4.2 -0.9 -11.2 4.6 -11.2 2.6 0 6.7 4 6.7 6.5 0 0.7 -0.9 2.4 -2.1 3.9 -2.4 3.1 -6.8 3.5 -9.2 0.8z"/>
 </g>
 <g fill="#f3dfa8">
  <path d="M180 313.1 c-0.6 -1.3 -1 -17.7 -1 -46.4 0 -47.3 0 -47.8 4.7 -46.3 1.7 0.5 1.8 3.2 1.8 46.6 0 36.1 -0.3 46 -1.2 46 -0.7 0 -1.3 0.5 -1.3 1 0 1.7 -1.9 1.1 -3 -0.9z"/>
 </g>
 <g fill="#c2c9cd">
 </g>
 <g fill="#8f9da4">
 </g>
 <g fill="#5e737f">
 </g>
</svg>